<svg width="108" height="100" viewBox="0 0 75 69" fill="none" xmlns="http://www.w3.org/2000/svg">
<path d="M34.7754 67.4151L6.86724 50.5011C3.74155 48.6067 3.74156 44.0715 6.86724 42.1771L34.7754 25.2631C36.3258 24.3235 38.2699 24.3235 39.8202 25.2631L67.7284 42.1771C70.8541 44.0715 70.8541 48.6067 67.7284 50.5011L39.8202 67.4151C38.2699 68.3547 36.3258 68.3547 34.7754 67.4151Z" fill="#16453A" fill-opacity="0.8"/>
<path d="M34.7754 43.6807L6.86724 26.7667C3.74155 24.8723 3.74156 20.3371 6.86724 18.4428L34.7754 1.52873C36.3258 0.589123 38.2699 0.589123 39.8202 1.52873L67.7284 18.4428C70.8541 20.3371 70.8541 24.8723 67.7284 26.7667L39.8202 43.6807C38.2699 44.6203 36.3258 44.6203 34.7754 43.6807Z" fill="#16453A" fill-opacity="0.4"/>
</svg>
